<svg xmlns="http://www.w3.org/2000/svg" viewBox="0 0 24 24" id="water-drop">
  <g>
    <path fill="#8dd1ff" d="M12.60505,2.96365a.71742.71742,0,0,0-1.2101,0c-.20288.37164-4.96427,9.13272-5.34579,12.56283A6.25568,6.25568,0,0,0,7.44957,20.475,5.98373,5.98373,0,0,0,12,22.36828,5.98373,5.98373,0,0,0,16.55043,20.475a6.25568,6.25568,0,0,0,1.40041-4.94855C17.56932,12.09637,12.80793,3.33529,12.60505,2.96365Z"></path>
    <path fill="#fff" d="M12.84766,20.106a.75.75,0,0,1,0-1.5,1.39459,1.39459,0,0,0,1.07714-.42432,1.509,1.509,0,0,0,.31153-1.2041.74972.74972,0,1,1,1.49023-.166,2.99479,2.99479,0,0,1-.68457,2.37061A2.8875,2.8875,0,0,1,12.84766,20.106Z"></path>
    <path fill="#004fac" d="M12,22.75a6.50794,6.50794,0,0,1-4.9502-2.05957,6.80412,6.80412,0,0,1-1.52343-5.38281c.415-3.73242,5.59472-13.2627,5.81543-13.667a.77958.77958,0,0,1,1.3164,0c.22071.40429,5.40039,9.93457,5.81543,13.667h0a6.80412,6.80412,0,0,1-1.52343,5.38281A6.50794,6.50794,0,0,1,12,22.75ZM12,3.59766c-1.42383,2.71972-4.68359,9.18066-4.9834,11.876A5.26108,5.26108,0,0,0,8.168,19.69043,5.03025,5.03025,0,0,0,12,21.25a5.03025,5.03025,0,0,0,3.832-1.55957,5.26108,5.26108,0,0,0,1.15137-4.2168C16.68359,12.77832,13.42383,6.31738,12,3.59766Z"></path>
  </g>
</svg>
